<svg xmlns="http://www.w3.org/2000/svg" enable-background="new 0 0 24 24" viewBox="0 0 24 24"><path fill="#303c42" d="M12,0C5.383,0,0,5.383,0,12s5.383,12,12,12s12-5.383,12-12S18.617,0,12,0z"/><path fill="#f44336" d="M12,1c4.264,0,7.961,2.444,9.786,6H12c-2.565,0-4.66,1.949-4.943,4.439L3.418,5.137   C5.436,2.619,8.53,1,12,1z"/><circle cx="12" cy="12" r="4" fill="#03a9f4"/><path fill="#fff" d="M8.391,12.391c0-2.206,1.794-4,4-4c1.003,0,1.91,0.384,2.613,0.996   C14.27,8.544,13.203,8,12,8c-2.206,0-4,1.794-4,4c0,1.202,0.544,2.27,1.387,3.004C8.775,14.301,8.391,13.394,8.391,12.391z" opacity=".2"/><path fill="#8bc34a" d="M1,12c0-2.203,0.657-4.252,1.777-5.975L7.67,14.5l0.02-0.011C8.555,15.982,10.153,17,12,17   c0.699,0,1.363-0.146,1.967-0.406l-3.619,6.268C5.066,22.061,1,17.503,1,12z"/><path fill="#ffeb3b" d="M12,23c-0.189,0-0.374-0.019-0.561-0.028L16.33,14.5l-0.02-0.011C16.737,13.753,17,12.91,17,12   c0-1.641-0.806-3.088-2.031-4h7.267C22.723,9.242,23,10.588,23,12C23,18.065,18.065,23,12,23z"/><linearGradient id="a" x1="16.786" x2="24.249" y1="6.183" y2="13.647" gradientUnits="userSpaceOnUse"><stop offset="0" stop-opacity=".1"/><stop offset="1" stop-opacity="0"/></linearGradient><path fill="url(#a)" d="M15.981,9.012l6.452,6.452C22.796,14.373,23,13.211,23,12c0-1.412-0.277-2.758-0.764-4   h-7.267C15.354,8.286,15.691,8.63,15.981,9.012z"/><linearGradient id="b" x1="2.798" x2="7.774" y1="5.745" y2="10.722" gradientUnits="userSpaceOnUse"><stop offset="0" stop-opacity=".1"/><stop offset="1" stop-opacity="0"/></linearGradient><path fill="url(#b)" d="M3.515,5.028C3.484,5.065,3.448,5.099,3.418,5.137l3.639,6.303   c0.088-0.772,0.366-1.481,0.762-2.107L3.515,5.028z"/><linearGradient id="c" x1="1.125" x2="22.875" y1="6.929" y2="17.071" gradientUnits="userSpaceOnUse"><stop offset="0" stop-color="#fff" stop-opacity=".2"/><stop offset="1" stop-color="#fff" stop-opacity="0"/></linearGradient><path fill="url(#c)" d="M12,0C5.383,0,0,5.383,0,12s5.383,12,12,12s12-5.383,12-12S18.617,0,12,0z"/></svg>