<svg id="SvgjsSvg1001" width="288" height="288" xmlns="http://www.w3.org/2000/svg" version="1.1" xmlns:xlink="http://www.w3.org/1999/xlink" xmlns:svgjs="http://svgjs.com/svgjs"><defs id="SvgjsDefs1002"></defs><g id="SvgjsG1008" transform="matrix(1,0,0,1,0,0)"><svg xmlns="http://www.w3.org/2000/svg" xmlns:xlink="http://www.w3.org/1999/xlink" viewBox="0 0 64 64" width="288" height="288"><defs><linearGradient id="s" x1="2.225" x2="63.922" y1="63.505" y2="3.706" xlink:href="#a"></linearGradient><linearGradient id="a" x1="6.319" x2="68.016" y1="67.729" y2="7.931" gradientUnits="userSpaceOnUse"><stop offset="0" stop-color="#39bdc8" class="stopColorfff200 svgShape"></stop><stop offset="1" stop-color="#59d4e8" class="stopColorcd118c svgShape"></stop></linearGradient><linearGradient id="c" x1="-.774" x2="60.923" y1="60.411" y2=".613" xlink:href="#a"></linearGradient><linearGradient id="d" x1="1.164" x2="62.861" y1="62.41" y2="2.612" xlink:href="#a"></linearGradient><linearGradient id="e" x1="3.101" x2="64.798" y1="64.409" y2="4.611" xlink:href="#a"></linearGradient><linearGradient id="f" x1="5.039" x2="66.736" y1="66.408" y2="6.61" xlink:href="#a"></linearGradient><linearGradient id="g" x1="6.976" x2="68.673" y1="68.407" y2="8.609" xlink:href="#a"></linearGradient><linearGradient id="h" x1="8.914" x2="70.611" y1="70.406" y2="10.608" xlink:href="#a"></linearGradient><linearGradient id="i" x1="10.851" x2="72.549" y1="72.406" y2="12.607" xlink:href="#a"></linearGradient><linearGradient id="j" x1="-1.212" x2="60.485" y1="59.959" y2=".161" xlink:href="#a"></linearGradient><linearGradient id="k" x1=".726" x2="62.423" y1="61.958" y2="2.16" xlink:href="#a"></linearGradient><linearGradient id="l" x1="2.663" x2="64.36" y1="63.957" y2="4.159" xlink:href="#a"></linearGradient><linearGradient id="m" x1="4.601" x2="66.298" y1="65.956" y2="6.158" xlink:href="#a"></linearGradient><linearGradient id="n" x1="6.538" x2="68.235" y1="67.955" y2="8.157" xlink:href="#a"></linearGradient><linearGradient id="o" x1="8.476" x2="70.173" y1="69.954" y2="10.156" xlink:href="#a"></linearGradient><linearGradient id="p" x1="10.413" x2="72.11" y1="71.953" y2="12.155" xlink:href="#a"></linearGradient><linearGradient id="q" x1="12.351" x2="74.048" y1="73.952" y2="14.154" xlink:href="#a"></linearGradient><linearGradient id="r" x1=".287" x2="61.984" y1="61.506" y2="1.707" xlink:href="#a"></linearGradient><linearGradient id="b" x1="-2.711" x2="58.986" y1="58.412" y2="-1.386" xlink:href="#a"></linearGradient><linearGradient id="t" x1="4.162" x2="65.859" y1="65.504" y2="5.705" xlink:href="#a"></linearGradient><linearGradient id="u" x1="6.1" x2="67.797" y1="67.503" y2="7.704" xlink:href="#a"></linearGradient><linearGradient id="v" x1="8.037" x2="69.735" y1="69.502" y2="9.703" xlink:href="#a"></linearGradient><linearGradient id="w" x1="9.975" x2="71.672" y1="71.501" y2="11.703" xlink:href="#a"></linearGradient><linearGradient id="x" x1="11.912" x2="73.61" y1="73.5" y2="13.702" xlink:href="#a"></linearGradient><linearGradient id="y" x1="13.85" x2="75.547" y1="75.499" y2="15.701" xlink:href="#a"></linearGradient><linearGradient id="z" x1="1.787" x2="63.484" y1="63.053" y2="3.254" xlink:href="#a"></linearGradient><linearGradient id="A" x1="8.568" x2="70.265" y1="70.05" y2="10.251" xlink:href="#a"></linearGradient><linearGradient id="B" x1="15.349" x2="77.046" y1="77.046" y2="17.247" xlink:href="#a"></linearGradient><linearGradient id="C" x1="20.919" x2="82.616" y1="82.792" y2="22.993" xlink:href="#a"></linearGradient><linearGradient id="D" x1="-9.869" x2="51.828" y1="51.027" y2="-8.772" xlink:href="#a"></linearGradient><linearGradient id="E" x1="-10.423" x2="51.274" y1="50.456" y2="-9.343" xlink:href="#a"></linearGradient><linearGradient id="F" x1="-18.25" x2="43.447" y1="42.38" y2="-17.418" xlink:href="#a"></linearGradient><linearGradient id="G" x1="-15.766" x2="45.931" y1="44.943" y2="-14.856" xlink:href="#a"></linearGradient><linearGradient id="H" x1="6.092" x2="67.789" y1="67.495" y2="7.697" xlink:href="#a"></linearGradient><linearGradient id="I" x1="11.59" x2="73.287" y1="73.167" y2="13.368" xlink:href="#a"></linearGradient><linearGradient id="J" x1="1.594" x2="63.291" y1="62.855" y2="3.056" xlink:href="#a"></linearGradient></defs><path fill="url(#a)" d="M38,62H4a2,2,0,0,1-2-2V47a2,2,0,0,1,2-2H38a2,2,0,0,1,2,2V60A2,2,0,0,1,38,62ZM4,47V60H38V47Z"></path><rect width="2" height="2" x="6" y="48" fill="url(#b)"></rect><rect width="2" height="2" x="10" y="48" fill="url(#c)"></rect><rect width="2" height="2" x="14" y="48" fill="url(#d)"></rect><rect width="2" height="2" x="18" y="48" fill="url(#e)"></rect><rect width="2" height="2" x="22" y="48" fill="url(#f)"></rect><rect width="2" height="2" x="26" y="48" fill="url(#g)"></rect><rect width="2" height="2" x="30" y="48" fill="url(#h)"></rect><rect width="2" height="2" x="34" y="48" fill="url(#i)"></rect><rect width="2" height="2" x="6" y="51" fill="url(#j)"></rect><rect width="2" height="2" x="10" y="51" fill="url(#k)"></rect><rect width="2" height="2" x="14" y="51" fill="url(#l)"></rect><rect width="2" height="2" x="18" y="51" fill="url(#m)"></rect><rect width="2" height="2" x="22" y="51" fill="url(#n)"></rect><rect width="2" height="2" x="26" y="51" fill="url(#o)"></rect><rect width="2" height="2" x="30" y="51" fill="url(#p)"></rect><rect width="2" height="2" x="34" y="51" fill="url(#q)"></rect><rect width="2" height="2" x="6" y="54" fill="url(#r)"></rect><rect width="2" height="2" x="10" y="54" fill="url(#s)"></rect><rect width="2" height="2" x="14" y="54" fill="url(#t)"></rect><rect width="2" height="2" x="18" y="54" fill="url(#u)"></rect><rect width="2" height="2" x="22" y="54" fill="url(#v)"></rect><rect width="2" height="2" x="26" y="54" fill="url(#w)"></rect><rect width="2" height="2" x="30" y="54" fill="url(#x)"></rect><rect width="2" height="2" x="34" y="54" fill="url(#y)"></rect><rect width="2" height="2" x="6" y="57" fill="url(#z)"></rect><rect width="22" height="2" x="10" y="57" fill="url(#A)"></rect><rect width="2" height="2" x="34" y="57" fill="url(#B)"></rect><path fill="url(#C)" d="M54,47H48a3.009,3.009,0,0,0-3,3v6a6,6,0,0,0,12,0V50A3.009,3.009,0,0,0,54,47Zm-4,2h2v3H50Zm5,7a4,4,0,0,1-8,0V50a1,1,0,0,1,1-1v3a2.006,2.006,0,0,0,2,2h2a2.006,2.006,0,0,0,2-2V49a1,1,0,0,1,1,1Z"></path><path fill="url(#D)" d="M39,7H3A1,1,0,0,0,2,8V32a1,1,0,0,0,1,1H15v3H10a1,1,0,0,0-1,1v4a1,1,0,0,0,1,1H32a1,1,0,0,0,1-1V37a1,1,0,0,0-1-1H27V33H39a1,1,0,0,0,1-1V8A1,1,0,0,0,39,7ZM31,38v2H11V38ZM17,36V33h8v3Zm21-5H4V9H38Z"></path><path fill="url(#E)" d="M6,30H36a1,1,0,0,0,1-1V11a1,1,0,0,0-1-1H6a1,1,0,0,0-1,1V29A1,1,0,0,0,6,30ZM7,12H35V28H7Z"></path><rect width="2" height="2" x="9" y="14" fill="url(#F)"></rect><rect width="4" height="2" x="9" y="18" fill="url(#G)"></rect><path fill="url(#H)" d="M61,4H43a1,1,0,0,0-1,1V41a1,1,0,0,0,1,1H61a1,1,0,0,0,1-1V5A1,1,0,0,0,61,4ZM60,40H44V6H60Z"></path><path fill="url(#I)" d="M52,30a4,4,0,1,0,4,4A4,4,0,0,0,52,30Zm0,6a1.994,1.994,0,0,1-1-3.722V34h2V32.278A1.994,1.994,0,0,1,52,36Z"></path><path fill="url(#J)" d="M58,7H46a1,1,0,0,0-1,1V20a1,1,0,0,0,1,1H58a1,1,0,0,0,1-1V8A1,1,0,0,0,58,7ZM57,19H47V17H57Zm0-4H47V13H57Zm0-4H47V9H57Z"></path></svg></g></svg>